# xmcd
#
# Track frame offsets:
#	150
#	18605
#	31642
#	48030
#	59919
#	78293
#	89058
#	105926
#	120355
#	137445
#	152369
#
# Disc length: 2229 seconds
#
# Revision: 1
# Processed by: cddbd v1.5.1PL2 Copyright (c) Steve Scherf et al.
# Submitted via: audiograbber 1.83.01
#
DISCID=7908b30b
DTITLE=Barb Marchuk - Here I Am
DYEAR=2000
DGENRE=Country
TTITLE0=Here I Am
TTITLE1=He Ain't You
TTITLE2=I'll Say Good Bye My Friend
TTITLE3=Fine Tune
TTITLE4=Hold Without A Touch
TTITLE5=Not Tonight Dear
TTITLE6=What Must People Think
TTITLE7=I'm So Good At Lovin' You
TTITLE8=I'll Get Over You
TTITLE9=The Nicest Thing
TTITLE10=Amazing Grace
EXTD=
EXTT0=
EXTT1=
EXTT2=
EXTT3=
EXTT4=
EXTT5=
EXTT6=
EXTT7=
EXTT8=
EXTT9=
EXTT10=
PLAYORDER=
